<svg width="12" height="14" viewBox="0 0 12 14" fill="none" xmlns="http://www.w3.org/2000/svg">
<path d="M0 12.2C0 11.5373 0.511675 11 1.14286 11H10.8571C11.4883 11 12 11.5373 12 12.2V12.8C12 13.4627 11.4883 14 10.8571 14H1.14286C0.511674 14 0 13.4627 0 12.8V12.2Z" fill="#FFBE03"/>
<path d="M4.0033 1.59817C3.95539 0.736658 4.43456 0 5.04285 0H6.95715C7.56544 0 8.04461 0.736659 7.99669 1.59817L7.60533 8.63521C7.56247 9.40575 7.10984 10 6.56578 10H5.43422C4.89016 10 4.43753 9.40575 4.39467 8.63521L4.0033 1.59817Z" fill="#FF9F00"/>
</svg>
