<svg width="47" height="48" viewBox="0 0 47 48" fill="none" xmlns="http://www.w3.org/2000/svg">
<path d="M39.9443 20.9745C37.4094 19.4403 35.9939 16.6521 36.0297 13.6847C36.0395 12.9355 35.9809 12.1668 35.8475 11.3883C34.9136 5.90637 30.3319 1.62632 24.8033 1.06607C17.2963 0.307131 10.9672 6.18649 10.9672 13.5446C10.9672 13.5642 10.9672 13.587 10.9672 13.6065C10.9835 16.6423 9.48988 19.4533 6.91595 21.0592C3.11199 23.4272 0.671469 27.7789 1.03592 32.6713C1.48172 38.6581 6.26514 43.5864 12.233 44.189C14.846 44.4528 17.3126 43.9089 19.4212 42.7786C20.2086 42.3584 21.0417 42.0815 21.891 41.9187L21.5753 45.7297C21.52 46.4169 22.1643 47 22.9778 47H24.0224C24.8359 47 25.4802 46.4169 25.4249 45.7297L25.1092 41.9187C25.9585 42.0815 26.7915 42.3584 27.579 42.7786C29.6844 43.9089 32.1509 44.4528 34.7672 44.189C40.735 43.5864 45.5185 38.6581 45.9643 32.6713C46.332 27.7235 43.8296 23.3262 39.9508 20.9777L39.9443 20.9745Z" fill="#FFD34E" stroke="#FFBE03" stroke-miterlimit="10"/>
<path d="M20.8225 22.1666C21.2807 22.1666 21.6522 21.795 21.6522 21.3366C21.6522 20.8782 21.2807 20.5066 20.8225 20.5066C20.3642 20.5066 19.9927 20.8782 19.9927 21.3366C19.9927 21.795 20.3642 22.1666 20.8225 22.1666Z" fill="white"/>
<path d="M27.2327 22.1667C27.691 22.1667 28.0625 21.795 28.0625 21.3366C28.0625 20.8782 27.691 20.5066 27.2327 20.5066C26.7745 20.5066 26.403 20.8782 26.403 21.3366C26.403 21.795 26.7745 22.1667 27.2327 22.1667Z" fill="white"/>
<path d="M23.8873 27.9819C23.819 27.9819 23.7539 27.9623 23.6953 27.9232L19.5334 25.2164C19.3707 25.1089 19.3252 24.8907 19.4293 24.7278C19.5367 24.565 19.7547 24.5194 19.9174 24.6236L23.8906 27.2099L28.0492 24.6204C28.2152 24.5194 28.43 24.5682 28.5341 24.7344C28.6382 24.9005 28.5861 25.1155 28.4202 25.2197L24.0696 27.9265C24.0142 27.9623 23.9492 27.9786 23.8841 27.9786L23.8873 27.9819Z" fill="white"/>
</svg>
