<svg width="11" height="13" viewBox="0 0 11 13" fill="none" xmlns="http://www.w3.org/2000/svg">
<path d="M6.64956 4.7477C6.51405 4.7477 6.3841 4.6951 6.28828 4.60147C6.19247 4.50785 6.13864 4.38087 6.13864 4.24847V0H1.53274C1.12624 0 0.736375 0.157791 0.448929 0.438664C0.161484 0.719536 0 1.10048 0 1.4977V11.5023C0 11.8995 0.161484 12.2805 0.448929 12.5613C0.736375 12.8422 1.12624 13 1.53274 13H9.46726C9.87354 12.9993 10.263 12.8412 10.5502 12.5605C10.8375 12.2798 10.9993 11.8993 11 11.5023V4.7477H6.64956Z" fill="#FF9F00"/>
<path d="M10.9668 4.12161L6.74878 0V0.247003V4.12161H10.7171H10.9668Z" fill="#FFBE03"/>
</svg>
