<svg width="133" height="133" viewBox="0 0 133 133" fill="none" xmlns="http://www.w3.org/2000/svg">
<g style="mix-blend-mode:screen">
<path d="M72.8746 101.892L73.0598 101.707C73.7616 101.006 73.9695 99.9582 73.6186 99.0335C71.2014 92.6711 65.7691 87.7946 59.0632 86.1367C57.6954 85.7992 56.8637 84.4009 57.26 83.0512C57.8091 81.1856 58.1015 79.2129 58.1015 77.1722C58.1015 68.425 52.7277 60.9368 45.1024 57.8058C44.1894 57.4295 43.1367 57.6696 42.4382 58.3671C39.9137 60.8881 35.8233 60.8881 33.2988 58.3671L32.8992 57.9681C32.2331 57.3029 31.2487 57.0564 30.3585 57.3613C22.1126 60.1776 16.1799 67.9805 16.1799 77.1722C16.1799 79.2129 16.4756 81.1888 17.0214 83.0512C17.4178 84.4009 16.5861 85.7992 15.2182 86.1367C8.51235 87.7914 3.08005 92.6711 0.662814 99.0335C0.311924 99.9614 0.519859 101.006 1.22164 101.707L1.40683 101.892C3.93129 104.413 3.93129 108.498 1.40683 111.019L1.22164 111.204C0.539353 111.885 0.295679 112.9 0.636822 113.802C3.61614 121.738 11.2772 127.387 20.2639 127.387C23.9905 127.387 27.4864 126.414 30.5177 124.71C32.2656 123.727 34.4002 125.077 34.2378 127.076L33.9226 130.878C33.8284 132.023 34.9038 133 36.2684 133H38.0163C39.3777 133 40.4563 132.027 40.3621 130.878L40.0469 127.076C39.8812 125.08 42.0158 123.73 43.767 124.71C46.7983 126.414 50.2942 127.387 54.0208 127.387C63.0075 127.387 70.6686 121.738 73.6479 113.802C73.9858 112.9 73.7421 111.885 73.0631 111.204L72.8779 111.019C70.3534 108.498 70.3534 104.413 72.8779 101.892H72.8746Z" fill="#0F9F00"/>
<path d="M31.1513 88.1288C31.9175 88.1288 32.5386 87.5085 32.5386 86.7434C32.5386 85.9782 31.9175 85.358 31.1513 85.358C30.3851 85.358 29.764 85.9782 29.764 86.7434C29.764 87.5085 30.3851 88.1288 31.1513 88.1288Z" fill="white"/>
<path d="M41.873 88.1288C42.6392 88.1288 43.2603 87.5085 43.2603 86.7434C43.2603 85.9782 42.6392 85.358 41.873 85.358C41.1068 85.358 40.4857 85.9782 40.4857 86.7434C40.4857 87.5085 41.1068 88.1288 41.873 88.1288Z" fill="white"/>
</g>
<path d="M41.8729 96.4119C42.9549 96.4119 43.832 94.984 43.832 93.2226C43.832 91.4612 42.9549 90.0333 41.8729 90.0333C40.7909 90.0333 39.9137 91.4612 39.9137 93.2226C39.9137 94.984 40.7909 96.4119 41.8729 96.4119Z" fill="white"/>
<g style="mix-blend-mode:screen">
<path d="M38.0033 75.7673H36.2781C34.9331 75.7673 33.8706 74.8069 33.9616 73.6746L34.8226 63.2598C34.9071 62.2345 35.9175 61.4397 37.1391 61.4397C38.3575 61.4397 39.3679 62.2345 39.4556 63.2598L40.3166 73.6746C40.4108 74.8069 39.3484 75.7673 38.0001 75.7673H38.0033Z" fill="#FF9F00"/>
<path d="M37.1424 41.3239C48.5689 41.3239 57.8319 32.0737 57.8319 20.663C57.8319 9.25231 48.5689 0.00212097 37.1424 0.00212097C25.7159 0.00212097 16.4529 9.25231 16.4529 20.663C16.4529 32.0737 25.7159 41.3239 37.1424 41.3239Z" fill="#FF9F00"/>
<path d="M20.6895 71.2412C32.116 71.2412 41.379 61.9911 41.379 50.5804C41.379 39.1697 32.116 29.9195 20.6895 29.9195C9.26301 29.9195 0 39.1697 0 50.5804C0 61.9911 9.26301 71.2412 20.6895 71.2412Z" fill="#FF9F00"/>
<path d="M53.5951 71.2412C65.0216 71.2412 74.2846 61.9911 74.2846 50.5804C74.2846 39.1697 65.0216 29.9195 53.5951 29.9195C42.1686 29.9195 32.9056 39.1697 32.9056 50.5804C32.9056 61.9911 42.1686 71.2412 53.5951 71.2412Z" fill="#FF9F00"/>
<path d="M31.6418 33.8713C32.399 33.8713 33.0129 33.2583 33.0129 32.5021C33.0129 31.7459 32.399 31.1329 31.6418 31.1329C30.8846 31.1329 30.2707 31.7459 30.2707 32.5021C30.2707 33.2583 30.8846 33.8713 31.6418 33.8713Z" fill="white"/>
<path d="M42.2238 33.8713C42.981 33.8713 43.5949 33.2583 43.5949 32.5021C43.5949 31.7459 42.981 31.1329 42.2238 31.1329C41.4666 31.1329 40.8527 31.7459 40.8527 32.5021C40.8527 33.2583 41.4666 33.8713 42.2238 33.8713Z" fill="white"/>
<path d="M36.798 42.8682C32.8083 42.8682 30.2805 41.1941 28.8575 39.7892C27.311 38.2611 26.7164 36.7264 26.6937 36.6615C26.5475 36.2754 26.7424 35.8472 27.1258 35.7012C27.5124 35.5552 27.9413 35.7466 28.0875 36.1327C28.172 36.3533 30.1993 41.379 36.798 41.379C43.3967 41.379 45.697 36.3209 45.7879 36.1067C45.9504 35.7304 46.3922 35.5552 46.7659 35.7174C47.1427 35.8796 47.3182 36.3144 47.159 36.694C47.0518 36.9471 44.4299 42.8715 36.798 42.8715V42.8682Z" fill="white"/>
</g>
<g style="mix-blend-mode:screen">
<path d="M95.572 75.7673H93.8468C92.5018 75.7673 91.4393 74.8069 91.5303 73.6746L92.3913 63.2598C92.4758 62.2345 93.4862 61.4396 94.7078 61.4396C95.9262 61.4396 96.9366 62.2345 97.0243 63.2598L97.8853 73.6746C97.9795 74.8069 96.9171 75.7673 95.5688 75.7673H95.572Z" fill="#FFD861"/>
<path d="M115.4 20.8933C115.413 19.6572 115.316 18.3919 115.098 17.1103C113.558 8.08088 105.995 1.03387 96.8683 0.109189C84.4734 -1.14318 74.0215 8.5416 74.0215 20.6597C74.0215 20.6922 74.0215 20.7279 74.0215 20.7603C74.0475 25.7601 71.5847 30.3899 67.3351 33.0342C61.058 36.9373 57.0293 44.1011 57.6304 52.1572C58.3646 62.0204 66.2629 70.1349 76.1171 71.1277C80.4317 71.5624 84.5059 70.667 87.9823 68.8046C92.206 66.5432 97.2257 66.5432 101.446 68.8046C104.923 70.667 108.997 71.5624 113.311 71.1277C123.166 70.1349 131.064 62.0172 131.798 52.1572C132.406 44.007 128.273 36.7654 121.869 32.8947C117.685 30.364 115.349 25.7731 115.404 20.8901L115.4 20.8933Z" fill="#FFD861"/>
<path d="M89.2104 33.8713C89.9677 33.8713 90.5815 33.2583 90.5815 32.5021C90.5815 31.7459 89.9677 31.1329 89.2104 31.1329C88.4532 31.1329 87.8394 31.7459 87.8394 32.5021C87.8394 33.2583 88.4532 33.8713 89.2104 33.8713Z" fill="white"/>
<path d="M99.7924 33.8713C100.55 33.8713 101.163 33.2583 101.163 32.5021C101.163 31.7459 100.55 31.1329 99.7924 31.1329C99.0352 31.1329 98.4214 31.7459 98.4214 32.5021C98.4214 33.2583 99.0352 33.8713 99.7924 33.8713Z" fill="white"/>
<path d="M94.2074 43.5625C94.0774 43.5625 93.9442 43.5236 93.8305 43.449L86.9589 38.9846C86.6373 38.7769 86.5463 38.3454 86.7542 38.0242C86.9622 37.703 87.3943 37.6154 87.7159 37.8198L94.2171 42.0409L101.02 37.8101C101.349 37.6122 101.778 37.7095 101.979 38.0307C102.18 38.3551 102.083 38.7834 101.758 38.9878L94.5778 43.4522C94.4641 43.5204 94.3373 43.5561 94.2106 43.5561L94.2074 43.5625Z" fill="white"/>
</g>
<g style="mix-blend-mode:screen">
<path d="M70.7693 70.8811C70.7628 70.7157 70.7563 70.5534 70.7563 70.388C70.7563 63.74 76.3738 57.9746 83.3006 57.9746C88.3658 57.9746 92.7259 61.232 94.7078 65.3785C96.6896 61.2288 101.05 57.9746 106.115 57.9746C113.042 57.9746 118.659 63.74 118.659 70.388C118.659 70.5534 118.653 70.7189 118.646 70.8811C118.646 70.8811 119.355 78.7814 110.553 87.4053C106.55 91.409 102.073 95.2147 94.7078 101.194C87.3391 95.2147 82.8652 91.409 78.8625 87.4053C70.061 78.7814 70.7693 70.8811 70.7693 70.8811Z" fill="#FFBE03"/>
<path d="M86.9426 127.007C86.8029 127.095 86.6632 127.183 86.5203 127.264C80.7533 130.589 72.946 128.613 69.4826 122.621C66.9484 118.241 67.595 112.842 70.2007 109.052C65.6131 109.413 60.6097 107.268 58.0755 102.888C54.612 96.8954 56.8019 89.1573 62.5688 85.8317C62.7118 85.7473 62.858 85.6727 63.0042 85.5948C63.0042 85.5948 69.4989 81.0298 81.3804 84.3327C86.8549 85.7927 92.3944 87.7589 101.264 91.1429C99.7631 100.503 98.7007 106.278 97.2289 111.742C94.1521 123.669 86.9459 127.004 86.9459 127.004L86.9426 127.007Z" fill="#FFBE03"/>
<path d="M102.476 126.767C102.616 126.855 102.755 126.943 102.898 127.024C108.665 130.349 116.473 128.373 119.936 122.381C122.47 118.001 121.824 112.602 119.218 108.812C123.806 109.172 128.809 107.028 131.343 102.648C134.807 96.6553 132.617 88.9172 126.85 85.5916C126.707 85.5072 126.561 85.4326 126.415 85.3547C126.415 85.3547 119.92 80.7897 108.038 84.0926C102.564 85.5526 97.0242 87.5188 88.1545 90.9028C89.6556 100.263 90.718 106.038 92.1898 111.502C95.2665 123.429 102.473 126.764 102.473 126.764L102.476 126.767Z" fill="#FFBE03"/>
<path d="M95.6402 132.997H93.785C92.336 132.997 91.1923 131.962 91.293 130.745L92.2222 119.539C92.3132 118.436 93.4016 117.579 94.7142 117.579C96.0268 117.579 97.1152 118.436 97.2062 119.539L98.1354 130.745C98.2361 131.962 97.0925 132.997 95.6434 132.997H95.6402Z" fill="#FFBE03"/>
<path d="M88.7913 87.9146C89.6059 87.9146 90.2663 87.2552 90.2663 86.4417C90.2663 85.6281 89.6059 84.9687 88.7913 84.9687C87.9767 84.9687 87.3163 85.6281 87.3163 86.4417C87.3163 87.2552 87.9767 87.9146 88.7913 87.9146Z" fill="white"/>
<path d="M100.179 87.9147C100.994 87.9147 101.654 87.2552 101.654 86.4417C101.654 85.6282 100.994 84.9687 100.179 84.9687C99.3645 84.9687 98.7041 85.6282 98.7041 86.4417C98.7041 87.2552 99.3645 87.9147 100.179 87.9147Z" fill="white"/>
<path d="M94.711 95.0622C92.9825 95.0622 91.5789 93.4887 91.5789 91.555C91.5789 91.1429 91.9136 90.8087 92.3262 90.8087C92.7388 90.8087 93.0735 91.1429 93.0735 91.555C93.0735 92.6646 93.8078 93.5698 94.711 93.5698C95.6142 93.5698 96.3517 92.6646 96.3517 91.555C96.3517 91.1429 96.6863 90.8087 97.099 90.8087C97.5116 90.8087 97.8462 91.1429 97.8462 91.555C97.8462 93.4887 96.4394 95.0622 94.711 95.0622Z" fill="white"/>
</g>
</svg>
