<svg width="44" height="44" viewBox="0 0 44 44" fill="none" xmlns="http://www.w3.org/2000/svg">
<rect width="44" height="44" rx="4" fill="#FF9F00"/>
<path d="M12 32H28.9155" stroke="white" stroke-width="1.5" stroke-linecap="round" stroke-linejoin="round"/>
<path d="M21.2267 26.6178L16.6134 27.4482L17.3823 22.7733L27.7315 12.4549C27.8745 12.3107 28.0446 12.1963 28.2319 12.1183C28.4193 12.0402 28.6203 12 28.8233 12C29.0263 12 29.2273 12.0402 29.4147 12.1183C29.6021 12.1963 29.7722 12.3107 29.9152 12.4549L31.5452 14.0849C31.6893 14.2279 31.8037 14.3979 31.8818 14.5853C31.9599 14.7727 32.0001 14.9737 32.0001 15.1767C32.0001 15.3797 31.9599 15.5807 31.8818 15.7681C31.8037 15.9555 31.6893 16.1256 31.5452 16.2686L21.2267 26.6178Z" fill="#FF9F00" stroke="white" stroke-width="1.5" stroke-linecap="round" stroke-linejoin="round"/>
</svg>
