<?xml version="1.0" encoding="UTF-8"?>
<svg id="_레이어_1" data-name="레이어 1" xmlns="http://www.w3.org/2000/svg" viewBox="0 0 796.78 243.93">
  <defs>
    <style>
      .cls-1 {
        fill: #fff;
      }

      .cls-2 {
        fill: #ffee4e;
      }

      .cls-3 {
        fill: #ff9f00;
      }

      .cls-4 {
        fill: #fff450;
      }

      .cls-5 {
        fill: #ffdb00;
      }

      .cls-6 {
        fill: #ffd34e;
      }

      .cls-7 {
        fill: #ffbe03;
      }

      .cls-8 {
        fill: #0f9f00;
      }
    </style>
  </defs>
  <path class="cls-3" d="m321.15,198.71c-2.31,3.03-4.89,5.84-7.71,8.4l-1.97,23.82c-.28,3.45,2.95,6.39,7.05,6.39h5.26c4.1,0,7.34-2.93,7.05-6.39l-1.97-23.82c-2.82-2.56-5.4-5.37-7.71-8.4"/>
  <path class="cls-3" d="m321.15,6.19c-34.81,0-63.03,28.22-63.03,63.03,0,10.27,2.46,19.96,6.81,28.53,2.01-.19,4.04-.29,6.1-.29,10.56,0,20.51,2.6,29.25,7.18.33-1.97,2.05-3.48,4.12-3.48,2.31,0,4.17,1.87,4.17,4.17,0,1.36-.65,2.57-1.65,3.33,5.43,3.76,10.23,8.36,14.24,13.6,3.86-5.05,8.46-9.5,13.64-13.18-1.38-.68-2.33-2.1-2.33-3.75,0-2.31,1.87-4.17,4.17-4.17s4.15,1.85,4.17,4.14c9.03-5,19.42-7.84,30.47-7.84,2.06,0,4.09.1,6.1.29,4.36-8.57,6.81-18.26,6.81-28.53,0-34.81-28.22-63.03-63.03-63.03"/>
  <path class="cls-3" d="m271.03,97.46c-2.06,0-4.09.1-6.1.29-9.94.95-19.21,4.22-27.26,9.25,8.53,7.01,15.22,16.2,19.21,26.71,1.07,2.83.44,6.02-1.7,8.16l-.56.56c-7.69,7.69-7.69,20.15,0,27.84l.56.56c2.08,2.08,2.82,5.18,1.79,7.93-4.83,12.87-13.69,23.78-25.04,31.16,10.75,8.51,24.33,13.59,39.1,13.59,16.33,0,31.21-6.21,42.41-16.4,2.82-2.56,5.4-5.37,7.71-8.4-8.1-10.6-12.91-23.85-12.91-38.22,0-8.56,1.7-16.71,4.79-24.15-8.17-1.49-13.7-5.38-17.12-8.77-4.71-4.66-6.52-9.34-6.59-9.54-.45-1.17.14-2.49,1.32-2.93.27-.1.54-.15.81-.15.92,0,1.78.56,2.12,1.46.24.61,5.37,13.36,21.44,15.65,1.75-3.46,3.81-6.74,6.15-9.8-4-5.24-8.81-9.84-14.24-13.6-.7.53-1.57.85-2.52.85-2.31,0-4.18-1.87-4.18-4.17,0-.24.02-.47.06-.7-8.74-4.59-18.69-7.18-29.25-7.18"/>
  <path class="cls-3" d="m371.28,97.46c-11.05,0-21.44,2.84-30.47,7.84,0,.01,0,.03,0,.04,0,2.31-1.87,4.17-4.17,4.17-.66,0-1.29-.15-1.84-.43-5.18,3.68-9.78,8.13-13.64,13.18-2.33,3.06-4.4,6.34-6.15,9.8,1.59.23,3.29.35,5.1.35,20.18,0,27.11-15.43,27.39-16.09.37-.86,1.21-1.37,2.09-1.37.3,0,.6.06.89.18,1.15.5,1.68,1.82,1.19,2.98-.33.77-8.31,18.84-31.57,18.84-2.55,0-4.9-.22-7.07-.62-3.09,7.44-4.79,15.59-4.79,24.15,0,14.37,4.81,27.62,12.91,38.22,2.31,3.03,4.89,5.84,7.71,8.4,11.2,10.19,26.08,16.4,42.41,16.4,11.5,0,22.28-3.08,31.56-8.46-17.53-10.21-29.81-28.67-31.38-49.75-1.83-24.58,10.45-46.44,29.57-58.34.58-.36,1.15-.73,1.7-1.12-7.59-4.38-16.19-7.22-25.35-8.1-2.01-.19-4.04-.29-6.1-.29"/>
  <path class="cls-1" d="m304.4,101.16c-2.07,0-3.79,1.5-4.12,3.48-.04.23-.06.46-.06.7,0,2.31,1.87,4.17,4.18,4.17.95,0,1.82-.32,2.52-.85,1.01-.76,1.65-1.97,1.65-3.33,0-2.31-1.87-4.17-4.17-4.17"/>
  <path class="cls-1" d="m336.63,101.16c-2.31,0-4.17,1.87-4.17,4.17,0,1.64.95,3.07,2.33,3.75.56.27,1.18.43,1.84.43,2.31,0,4.17-1.87,4.17-4.17,0-.01,0-.03,0-.04-.02-2.29-1.88-4.14-4.17-4.14"/>
  <path class="cls-1" d="m291.45,114.95c-.27,0-.54.05-.81.15-1.17.45-1.76,1.76-1.32,2.93.07.2,1.89,4.88,6.59,9.54,3.42,3.38,8.95,7.28,17.12,8.77,2.17.39,4.52.62,7.07.62,23.26,0,31.24-18.07,31.57-18.84.49-1.15-.04-2.48-1.19-2.98-.29-.13-.59-.18-.89-.18-.88,0-1.72.51-2.09,1.37-.28.66-7.21,16.09-27.39,16.09-1.81,0-3.51-.12-5.1-.35-16.06-2.29-21.2-15.04-21.44-15.65-.35-.9-1.21-1.46-2.12-1.46"/>
  <path class="cls-8" d="m127.59,109.35c-2.34,0-4.23-1.89-4.23-4.23s1.89-4.23,4.23-4.23,4.23,1.89,4.23,4.23-1.89,4.23-4.23,4.23m32.59,0c-2.34,0-4.23-1.89-4.23-4.23s1.89-4.23,4.23-4.23,4.23,1.89,4.23,4.23-1.89,4.23-4.23,4.23M127.46,6.19c-.79,0-1.59.13-2.36.39-25.13,8.59-43.19,32.4-43.19,60.43,0,6.23.9,12.25,2.57,17.94,1.21,4.12-1.32,8.39-5.49,9.42-20.43,5.05-36.98,19.93-44.34,39.34-1.07,2.83-.44,6.02,1.7,8.16l.56.56c7.69,7.69,7.69,20.15,0,27.84l-.56.56c-2.08,2.08-2.82,5.18-1.79,7.93,9.08,24.21,32.41,41.44,59.79,41.44,11.35,0,22-2.97,31.24-8.16,1.22-.69,2.51-1,3.76-1,4.19,0,7.96,3.52,7.57,8.21l-.96,11.6c-.29,3.5,2.99,6.47,7.14,6.47h5.32c4.15,0,7.43-2.97,7.14-6.47l-.96-11.6c-.39-4.69,3.38-8.21,7.57-8.21,1.25,0,2.53.31,3.76,1,9.23,5.2,19.89,8.16,31.24,8.16,12.82,0,24.75-3.78,34.75-10.28-14.58-11.54-23.92-29.4-23.92-49.43,0-22.56,11.85-42.35,29.67-53.49-7.22-5.93-15.77-10.31-25.13-12.63-4.17-1.03-6.7-5.3-5.49-9.42,1.67-5.69,2.57-11.71,2.57-17.94,0-26.68-16.37-49.53-39.6-59.08-.89-.36-1.82-.54-2.74-.54-1.98,0-3.93.8-5.38,2.25-3.84,3.84-8.88,5.77-13.92,5.77s-10.08-1.92-13.92-5.77l-1.21-1.21c-1.45-1.45-3.4-2.24-5.38-2.24"/>
  <path class="cls-5" d="m237.68,107c-17.82,11.14-29.67,30.93-29.67,53.49,0,20.04,9.35,37.89,23.92,49.43,11.36-7.39,20.22-18.29,25.04-31.16,1.03-2.75.29-5.85-1.79-7.93l-.56-.56c-7.69-7.69-7.69-20.15,0-27.84l.56-.56c2.14-2.14,2.77-5.33,1.7-8.16-3.99-10.51-10.67-19.7-19.21-26.71"/>
  <path class="cls-1" d="m127.59,100.89c-2.34,0-4.23,1.89-4.23,4.23s1.89,4.23,4.23,4.23,4.23-1.89,4.23-4.23-1.89-4.23-4.23-4.23"/>
  <path class="cls-1" d="m160.18,100.89c-2.34,0-4.23,1.89-4.23,4.23s1.89,4.23,4.23,4.23,4.23-1.89,4.23-4.23-1.89-4.23-4.23-4.23"/>
  <path class="cls-1" d="m166.14,124.6c0,5.37-2.67,9.73-5.97,9.73s-5.97-4.35-5.97-9.73,2.67-9.73,5.97-9.73,5.97,4.35,5.97,9.73Z"/>
  <path class="cls-6" d="m484.43,210.93c-2.71,0-5.42.26-8.09.77l-1.59,19.24c-.29,3.45,2.95,6.39,7.05,6.39h5.26c4.1,0,7.34-2.93,7.05-6.39l-1.59-19.24c-2.67-.51-5.38-.77-8.09-.77"/>
  <path class="cls-6" d="m482.89,139.26c-.44,0-.87-.12-1.25-.37l-20.93-13.61c-1.06-.69-1.37-2.12-.67-3.18.44-.68,1.18-1.05,1.93-1.05.43,0,.86.12,1.25.37l19.7,12.81,20.63-12.84c.38-.23.8-.35,1.21-.35.77,0,1.52.38,1.96,1.08.67,1.08.34,2.5-.74,3.17l-21.87,13.61c-.37.23-.79.35-1.22.35m-15.22-29.74c-2.31,0-4.17-1.87-4.17-4.17s1.87-4.17,4.17-4.17,4.17,1.87,4.17,4.17-1.87,4.17-4.17,4.17m32.24,0c-2.31,0-4.17-1.87-4.17-4.17s1.87-4.17,4.17-4.17,4.17,1.87,4.17,4.17-1.87,4.17-4.17,4.17m-15.48-103.32c-34.81,0-63.03,28.22-63.03,63.03,0,.1,0,.21,0,.31.07,14.57-6.77,28.11-18.67,36.33,18.87,10.89,31.58,31.28,31.58,54.63s-12.65,43.67-31.47,54.57c7.49,4.36,15.95,7.22,24.94,8.13,2.2.22,4.38.33,6.53.33,10.72,0,20.79-2.69,29.61-7.41,3.96-2.12,8.15-3.59,12.42-4.41,2.67-.51,5.38-.77,8.09-.77s5.42.26,8.09.77c4.28.82,8.46,2.29,12.42,4.41,8.82,4.73,18.9,7.41,29.61,7.41,2.15,0,4.33-.11,6.53-.33,10.5-1.06,20.27-4.78,28.64-10.46-2.08-2.16-3.93-4.6-5.49-7.31-7.78-13.47-5.8-30.08,2.21-41.73h0c-1.02.07-2.05.11-3.08.11-13.2,0-26.95-6.58-34.16-19.07-10.64-18.43-3.91-42.23,13.8-52.46.44-.25.89-.49,1.34-.72h0s2.31-1.63,6.8-3.37c-2.48-5.64-3.74-11.86-3.67-18.25.04-3.77-.25-7.63-.92-11.54-4.69-27.55-27.73-49.05-55.54-51.86-2.21-.22-4.4-.33-6.57-.33"/>
  <path class="cls-2" d="m402.73,105.86c-.56.38-1.12.76-1.7,1.12-19.12,11.91-31.4,33.77-29.57,58.34,1.57,21.08,13.85,39.54,31.38,49.75,18.81-10.9,31.47-31.26,31.47-54.57s-12.7-43.75-31.58-54.63"/>
  <path class="cls-1" d="m467.67,101.16c-2.31,0-4.17,1.87-4.17,4.17s1.87,4.17,4.17,4.17,4.17-1.87,4.17-4.17-1.87-4.17-4.17-4.17"/>
  <path class="cls-1" d="m499.91,101.16c-2.31,0-4.17,1.87-4.17,4.17s1.87,4.17,4.17,4.17,4.17-1.87,4.17-4.17-1.87-4.17-4.17-4.17"/>
  <path class="cls-1" d="m461.96,121.05c-.75,0-1.49.37-1.93,1.05-.69,1.07-.39,2.49.67,3.18l20.93,13.61c.38.25.82.37,1.25.37s.84-.12,1.22-.35l21.87-13.61c1.08-.67,1.41-2.09.74-3.17-.44-.7-1.19-1.08-1.96-1.08-.41,0-.83.11-1.21.35l-20.63,12.84-19.7-12.81c-.39-.25-.82-.37-1.25-.37"/>
  <path class="cls-7" d="m676.75,6.58c-15.56,0-28.95,10.02-35.03,22.77h0c-6.08-12.76-19.48-22.77-35.03-22.77-21.28,0-38.53,17.73-38.53,38.18,0,.51.02,1.02.04,1.52h0s-1.52,16.94,13.72,37.97c5.68.45,11.98,1.51,18.87,3.42,12,3.2,24.09,7.2,39.93,13.01,16.84-6.21,29.45-10.41,41.95-13.75,7.11-1.98,13.6-3.04,19.43-3.46,14.64-20.67,13.16-37.18,13.16-37.18h0c.02-.5.04-1.01.04-1.52,0-20.45-17.25-38.18-38.53-38.18"/>
  <path class="cls-7" d="m575.25,83.98c-10.82,0-18.93,2.18-24.13,4.2,3.3,7.51,8.74,13.97,16.02,18.37,19.51,11.81,32.1,33.89,30.25,58.76-1.46,19.56-12.14,36.87-27.68,47.42,7.44,7.75,17.78,11.91,28.16,11.91,6.44,0,12.89-1.6,18.67-4.94.44-.25.87-.52,1.3-.79h0s7.36-3.41,15.41-13.34l.8-9.64c.26-3.13,3.12-5.61,6.72-5.98-2.58-5.3-4.93-11.5-6.79-18.72-4.44-16.51-7.67-33.93-12.15-61.83-1.66-.67-2.83-2.3-2.83-4.2,0-2.5,2.03-4.53,4.53-4.53s4.53,2.03,4.53,4.53c0,.07,0,.14,0,.21,4.49-1.7,8.68-3.27,12.65-4.73-15.84-5.81-27.94-9.8-39.93-13.01-6.88-1.92-13.18-2.97-18.87-3.42-2.32-.18-4.54-.27-6.65-.27"/>
  <path class="cls-4" d="m551.12,88.18c-4.49,1.74-6.8,3.37-6.8,3.37h0c-.45.24-.89.47-1.34.73-17.71,10.23-24.44,34.03-13.8,52.46,7.22,12.5,20.96,19.07,34.16,19.07,1.03,0,2.06-.04,3.08-.12h0c-8.01,11.65-9.98,28.26-2.21,41.73,1.56,2.71,3.41,5.15,5.49,7.31,15.54-10.55,26.22-27.86,27.68-47.42,1.85-24.87-10.74-46.95-30.25-58.76-7.28-4.41-12.72-10.87-16.02-18.37"/>
  <path class="cls-7" d="m641.71,126.92c2.67,0,4.84-2.69,4.84-5.99,0-1.38,1.12-2.5,2.5-2.5s2.5,1.12,2.5,2.5c0,6.06-4.41,10.98-9.83,10.98s-9.83-4.93-9.83-10.98c0-1.38,1.12-2.5,2.5-2.5s2.5,1.12,2.5,2.5c0,3.3,2.17,5.99,4.84,5.99m16.79-17.2c-2.5,0-4.53-2.03-4.53-4.53s2.03-4.53,4.53-4.53,4.53,2.03,4.53,4.53-2.03,4.53-4.53,4.53m49.67-26.48c-1.94,0-3.97.07-6.09.22-5.83.42-12.31,1.48-19.43,3.46-12.5,3.34-25.11,7.54-41.95,13.75-3.96,1.46-8.16,3.03-12.65,4.73-.11,2.4-2.09,4.32-4.52,4.32-.6,0-1.17-.12-1.7-.33,4.49,27.9,7.71,45.32,12.15,61.83,1.86,7.22,4.22,13.42,6.79,18.72.31-.03.62-.05.93-.05,4.03,0,7.37,2.63,7.65,6.03l.73,8.81c8.07,9.99,15.48,13.43,15.48,13.43h0c.43.27.85.53,1.3.79,5.78,3.34,12.24,4.94,18.68,4.94,13.28,0,26.49-6.81,33.65-19.22,7.78-13.47,5.8-30.08-2.21-41.73h0c1.02.07,2.05.11,3.08.11,13.2,0,26.95-6.58,34.16-19.07,10.64-18.43,3.91-42.23-13.8-52.46-.44-.25-.89-.49-1.34-.73h0s-10.76-7.57-30.93-7.57"/>
  <path class="cls-7" d="m641.71,189.9c-.31,0-.63.02-.93.05-3.6.37-6.46,2.85-6.72,5.98l-.8,9.64-2.05,24.83c-.31,3.75,3.2,6.93,7.65,6.93h5.7c4.45,0,7.96-3.18,7.65-6.93l-2.12-25.66-.73-8.81c-.28-3.39-3.62-6.03-7.65-6.03"/>
  <path class="cls-1" d="m623.53,100.67c-2.5,0-4.53,2.03-4.53,4.53,0,1.9,1.17,3.53,2.83,4.2.52.21,1.1.33,1.7.33,2.43,0,4.41-1.91,4.52-4.32,0-.07,0-.14,0-.21,0-2.5-2.03-4.53-4.53-4.53"/>
  <path class="cls-1" d="m658.51,100.67c-2.5,0-4.53,2.03-4.53,4.53s2.03,4.53,4.53,4.53,4.53-2.03,4.53-4.53-2.03-4.53-4.53-4.53"/>
  <path class="cls-1" d="m649.04,118.44c-1.38,0-2.5,1.12-2.5,2.5,0,3.3-2.17,5.99-4.84,5.99s-4.84-2.69-4.84-5.99c0-1.38-1.12-2.5-2.5-2.5s-2.5,1.12-2.5,2.5c0,6.06,4.41,10.98,9.83,10.98s9.83-4.93,9.83-10.98c0-1.38-1.12-2.5-2.5-2.5"/>
</svg>