<svg width="12" height="16" viewBox="0 0 12 16" fill="none" xmlns="http://www.w3.org/2000/svg">
<path d="M10.5155 4.4786V5.11481C10.4282 5.09884 10.3395 5.09136 10.2507 5.09249H9.38873V4.4786C9.38873 3.58795 9.03156 2.73378 8.39578 2.10399C7.76001 1.4742 6.89771 1.12039 5.99859 1.12039C5.09947 1.12039 4.23718 1.4742 3.6014 2.10399C2.96563 2.73378 2.60845 3.58795 2.60845 4.4786V5.09249H1.7493C1.65964 5.09287 1.57015 5.10034 1.48169 5.11481V4.4786C1.48057 3.59295 1.74489 2.72689 2.24115 1.9902C2.73742 1.2535 3.4433 0.679321 4.26933 0.340424C5.09536 0.00152768 6.00436 -0.0868304 6.88114 0.086547C7.75792 0.259925 8.563 0.687233 9.19437 1.31432C9.61521 1.72876 9.94872 2.22191 10.1755 2.76512C10.4023 3.30833 10.5179 3.89077 10.5155 4.4786Z" fill="#FFBE03"/>
<path d="M10.5155 5.11484C10.4282 5.09887 10.3395 5.09139 10.2507 5.09252H1.7493C1.65964 5.0929 1.57015 5.10037 1.48169 5.11484C1.06913 5.17753 0.692867 5.3845 0.421064 5.69828C0.149261 6.01205 -0.000112517 6.41188 6.35912e-08 6.82534V14.2673C0.000447536 14.7267 0.184892 15.1672 0.512851 15.4921C0.840811 15.8169 1.28549 15.9996 1.7493 16.0001H10.2507C10.7144 15.9992 11.1588 15.8164 11.4867 15.4916C11.8145 15.1668 11.9991 14.7266 12 14.2673V6.82534C11.9994 6.41164 11.8494 6.01181 11.5771 5.69811C11.3049 5.3844 10.9283 5.17752 10.5155 5.11484ZM2.04507 6.21146C2.02625 6.21199 2.00741 6.21106 1.98873 6.20867H2.10141C2.08273 6.21106 2.06389 6.21199 2.04507 6.21146ZM5.99915 11.3095C5.84666 11.3097 5.69751 11.2652 5.5706 11.1814C5.44369 11.0977 5.34473 10.9785 5.28624 10.839C5.22775 10.6995 5.21238 10.5459 5.24206 10.3978C5.27174 10.2496 5.34515 10.1135 5.45298 10.0067C5.56081 9.89985 5.69821 9.82713 5.84779 9.79773C5.99737 9.76833 6.15239 9.78356 6.29322 9.8415C6.43406 9.89943 6.55437 9.99746 6.63892 10.1232C6.72346 10.2489 6.76845 10.3966 6.76817 10.5477C6.76728 10.7495 6.68597 10.9427 6.54195 11.0854C6.39792 11.228 6.20284 11.3086 5.99915 11.3095ZM9.95127 6.21146C9.93244 6.21199 9.91361 6.21106 9.89493 6.20867H10.0076C9.98921 6.21102 9.97066 6.21195 9.95211 6.21146H9.95127Z" fill="#FF9F00"/>
</svg>
