<svg width="16" height="16" viewBox="0 0 16 16" fill="none" xmlns="http://www.w3.org/2000/svg">
<path d="M1 15H12.8409" stroke="#979797" stroke-width="1.4" stroke-linecap="round" stroke-linejoin="round"/>
<path d="M7.45894 11.2325L4.22961 11.8137L4.76784 8.54134L12.0123 1.31841C12.1124 1.21752 12.2314 1.13744 12.3626 1.08279C12.4938 1.02814 12.6345 1 12.7766 1C12.9187 1 13.0594 1.02814 13.1905 1.08279C13.3217 1.13744 13.4408 1.21752 13.5408 1.31841L14.6819 2.45944C14.7828 2.55951 14.8629 2.67856 14.9175 2.80974C14.9722 2.94091 15.0003 3.08161 15.0003 3.22371C15.0003 3.36582 14.9722 3.50651 14.9175 3.63769C14.8629 3.76886 14.7828 3.88792 14.6819 3.98799L7.45894 11.2325Z" stroke="#979797" stroke-width="1.4" stroke-linecap="round" stroke-linejoin="round"/>
</svg>
