<svg width="47" height="48" viewBox="0 0 47 48" fill="none" xmlns="http://www.w3.org/2000/svg">
<path d="M45.4288 28.1163L45.5426 28.0039C45.9744 27.5774 46.1016 26.9426 45.8841 26.3806C44.4013 22.5192 41.0642 19.5571 36.9505 18.5521C36.1104 18.3471 35.6016 17.4975 35.846 16.6776C36.1807 15.5436 36.3648 14.3469 36.3648 13.1071C36.3648 7.79772 33.0678 3.24869 28.3852 1.34776C27.8228 1.11964 27.1768 1.26511 26.7484 1.68827C25.1987 3.21894 22.6883 3.21894 21.1386 1.68827L20.8942 1.44694C20.4859 1.04361 19.8801 0.894837 19.3345 1.07667C14.2702 2.78586 10.6319 7.52663 10.6319 13.1038C10.6319 14.3436 10.8126 15.5403 11.1507 16.6743C11.395 17.4941 10.8829 18.3438 10.0461 18.5488C5.92914 19.5538 2.59538 22.5159 1.1126 26.3773C0.895031 26.9393 1.02557 27.5741 1.45401 28.0005L1.56781 28.1129C3.11754 29.6436 3.11754 32.1231 1.56781 33.6538L1.45401 33.7662C1.03561 34.1794 0.88499 34.7976 1.09251 35.3431C2.92006 40.1599 7.6228 43.5915 13.1422 43.5915C15.4284 43.5915 17.5772 42.9998 19.4349 41.9683C20.5093 41.3732 21.8181 42.1898 21.7176 43.4031L21.5235 45.7107C21.4666 46.4082 22.126 47 22.9628 47H24.0372C24.874 47 25.5367 46.4082 25.4765 45.7107L25.2824 43.4031C25.1819 42.1898 26.4907 41.3699 27.5651 41.9683C29.4261 43.0031 31.5716 43.5915 33.8578 43.5915C39.3739 43.5915 44.0766 40.1599 45.9075 35.3431C46.115 34.7976 45.9644 34.1794 45.546 33.7662L45.4322 33.6538C43.8825 32.1231 43.8825 29.6436 45.4322 28.1129L45.4288 28.1163Z" fill="#0F9F00" stroke="#0D8D00" stroke-miterlimit="10"/>
<path d="M19.8162 18.2876C20.2876 18.2876 20.6697 17.9101 20.6697 17.4446C20.6697 16.979 20.2876 16.6015 19.8162 16.6015C19.3448 16.6015 18.9626 16.979 18.9626 17.4446C18.9626 17.9101 19.3448 18.2876 19.8162 18.2876Z" fill="white"/>
<path d="M26.397 18.2876C26.8684 18.2876 27.2505 17.9101 27.2505 17.4446C27.2505 16.979 26.8684 16.6015 26.397 16.6015C25.9256 16.6015 25.5435 16.979 25.5435 17.4446C25.5435 17.9101 25.9256 18.2876 26.397 18.2876Z" fill="white"/>
<path d="M26.3967 23.316C27.0603 23.316 27.5983 22.4487 27.5983 21.3787C27.5983 20.3088 27.0603 19.4414 26.3967 19.4414C25.7331 19.4414 25.1951 20.3088 25.1951 21.3787C25.1951 22.4487 25.7331 23.316 26.3967 23.316Z" fill="white"/>
</svg>
