<svg width="14" height="10" viewBox="0 0 14 10" fill="none" xmlns="http://www.w3.org/2000/svg">
<path d="M1.4408 2.9549C2.23653 2.9549 2.8816 2.29342 2.8816 1.47745C2.8816 0.661476 2.23653 0 1.4408 0C0.645067 0 0 0.661476 0 1.47745C0 2.29342 0.645067 2.9549 1.4408 2.9549Z" fill="#FFD861"/>
<path d="M12.5592 2.95484C13.3549 2.95484 14 2.29337 14 1.47739C14 0.661422 13.3549 -5.34058e-05 12.5592 -5.34058e-05C11.7635 -5.34058e-05 11.1184 0.661422 11.1184 1.47739C11.1184 2.29337 11.7635 2.95484 12.5592 2.95484Z" fill="#FFD861"/>
<path d="M7.21979 10C5.5962 10 4.27905 8.47845 4.27905 6.60408C4.27905 6.25677 4.55323 5.97561 4.89193 5.97561C5.23062 5.97561 5.50481 6.25677 5.50481 6.60408C5.50481 7.78383 6.27896 8.74307 7.22516 8.74307C8.17135 8.74307 8.94552 7.78383 8.94552 6.60408C8.94552 6.25677 9.2197 5.97561 9.55839 5.97561C9.89709 5.97561 10.1713 6.25677 10.1713 6.60408C10.1713 8.47294 8.85412 10 7.23054 10H7.21979Z" fill="#FFD861"/>
</svg>
