<svg width="49" height="49" viewBox="0 0 49 49" fill="none" xmlns="http://www.w3.org/2000/svg">
<path d="M44.2356 18.3038C44.1478 18.2522 44.0565 18.2039 43.9686 18.1557C43.9686 18.1557 41.3764 16.3062 36.5604 16.6644C39.4872 12.4555 39.1999 9.08706 39.1999 9.08706C39.2033 8.98373 39.2067 8.8804 39.2067 8.77708C39.2067 4.613 35.7594 1 31.5078 1C28.3985 1 25.7218 3.03899 24.5051 5.63938C23.2884 3.03899 20.6117 1 17.5024 1C13.2507 1 9.80346 4.60956 9.80346 8.77708C9.80346 8.8804 9.80684 8.98373 9.81022 9.08706C9.81022 9.08706 9.51957 12.5382 12.5647 16.8228C7.67089 16.4233 5.0415 18.3073 5.0415 18.3073C4.95362 18.3555 4.86237 18.4037 4.7745 18.4554C1.23598 20.5391 -0.109137 25.3852 2.01668 29.1394C3.57133 31.8844 6.64346 33.2277 9.45874 33.0004C7.85677 35.3734 7.46473 38.7557 9.01938 41.5007C11.1452 45.2549 15.9376 46.4914 19.4761 44.4077C19.564 44.356 19.6485 44.3009 19.7363 44.2458C19.7363 44.2458 21.2099 43.5432 22.8152 41.5214L22.4029 46.5879C22.3421 47.3525 23.045 48 23.9305 48H25.0695C25.9583 48 26.6613 47.3525 26.5971 46.5879L26.1713 41.3526C27.7834 43.3882 29.2637 44.0977 29.2637 44.0977C29.3482 44.1528 29.436 44.2079 29.5239 44.2596C33.0624 46.3433 37.8548 45.1034 39.9806 41.3526C41.5353 38.6076 41.1399 35.2253 39.5413 32.8523C42.3565 33.0761 45.4287 31.7363 46.9833 28.9913C49.1091 25.2371 47.764 20.391 44.2255 18.3073L44.2356 18.3038Z" fill="#FFBE03" stroke="#FF9F00" stroke-miterlimit="10"/>
<path d="M20.8718 19.7574C21.3721 19.7574 21.7776 19.3441 21.7776 18.8343C21.7776 18.3246 21.3721 17.9113 20.8718 17.9113C20.3716 17.9113 19.9661 18.3246 19.9661 18.8343C19.9661 19.3441 20.3716 19.7574 20.8718 19.7574Z" fill="white"/>
<path d="M27.8612 19.7573C28.3614 19.7573 28.767 19.3441 28.767 18.8343C28.767 18.3245 28.3614 17.9112 27.8612 17.9112C27.361 17.9112 26.9554 18.3245 26.9554 18.8343C26.9554 19.3441 27.361 19.7573 27.8612 19.7573Z" fill="white"/>
<path d="M24.5051 24.1589C23.4844 24.1589 22.6564 23.2083 22.6564 22.0373C22.6564 21.8203 22.8287 21.6446 23.0417 21.6446C23.2546 21.6446 23.4269 21.8203 23.4269 22.0373C23.4269 22.7743 23.9136 23.3736 24.5084 23.3736C25.1033 23.3736 25.5899 22.7743 25.5899 22.0373C25.5899 21.8203 25.7623 21.6446 25.9752 21.6446C26.1881 21.6446 26.3605 21.8203 26.3605 22.0373C26.3605 23.2049 25.5325 24.1589 24.5118 24.1589H24.5051Z" fill="white"/>
</svg>
