<?xml version="1.0" encoding="UTF-8"?>
<svg id="_레이어_1" data-name="레이어 1" xmlns="http://www.w3.org/2000/svg" viewBox="0 0 409.37 409.91">
  <defs>
    <style>
      .cls-1 {
        fill: #fff;
      }

      .cls-2 {
        fill: #ffee4e;
      }

      .cls-3 {
        fill: #ff9f00;
      }

      .cls-4 {
        fill: #fff450;
      }

      .cls-5 {
        fill: #ffdb00;
      }

      .cls-6 {
        fill: #ffe703;
      }

      .cls-7 {
        fill: #ffd34e;
      }

      .cls-8 {
        fill: #ffbe03;
      }

      .cls-9 {
        fill: #0f9f00;
      }
    </style>
  </defs>
  <path class="cls-9" d="m95.88,271.62c-2.36,0-4.27-1.91-4.27-4.27s1.91-4.27,4.27-4.27,4.27,1.91,4.27,4.27-1.91,4.27-4.27,4.27m33,0c-2.36,0-4.27-1.91-4.27-4.27s1.91-4.27,4.27-4.27,4.27,1.91,4.27,4.27-1.91,4.27-4.27,4.27m-22.35-68.62c-11.31,10.3-26.35,16.57-42.85,16.57-3.74,0-7.41-.32-10.97-.94-1.89,6.07-2.91,12.52-2.91,19.21,0,6.29.91,12.37,2.59,18.12,1.22,4.16-1.34,8.47-5.55,9.51-20.64,5.1-37.36,20.14-44.8,39.75-1.08,2.86-.44,6.08,1.72,8.24l.57.57c7.77,7.77,7.77,20.36,0,28.13l-.57.57c-2.1,2.1-2.85,5.23-1.8,8.01,9.17,24.46,32.75,41.87,60.41,41.87,11.47,0,22.23-3,31.56-8.25,1.24-.7,2.53-1.01,3.8-1.01,4.23,0,8.04,3.56,7.65,8.3l-.97,11.72c-.29,3.54,3.02,6.54,7.22,6.54h5.38c4.2,0,7.51-3,7.22-6.54l-.97-11.72c-.39-4.74,3.42-8.3,7.65-8.3,1.26,0,2.56.32,3.8,1.01,9.33,5.25,20.09,8.25,31.56,8.25,17.78,0,33.88-7.2,45.54-18.83-5.28-12.64-2.95-27.16,4.27-37.66h0c-1.02.07-2.05.11-3.09.11-13.23,0-27-6.59-34.23-19.11-9.75-16.89-4.94-38.3,9.54-49.66-2.12-.77-4.29-1.43-6.5-1.98-4.21-1.04-6.77-5.35-5.55-9.51,1.69-5.75,2.59-11.83,2.59-18.12,0-6.69-1.02-13.14-2.91-19.21-3.56.62-7.23.94-10.97.94-16.5,0-31.54-6.28-42.85-16.57l1.99,24.07c.29,3.49-2.99,6.45-7.13,6.45h-5.31c-4.14,0-7.41-2.97-7.12-6.45l1.99-24.07"/>
  <path class="cls-1" d="m95.88,263.08c-2.36,0-4.27,1.91-4.27,4.27s1.91,4.27,4.27,4.27,4.27-1.91,4.27-4.27-1.91-4.27-4.27-4.27"/>
  <path class="cls-1" d="m128.88,263.08c-2.36,0-4.27,1.91-4.27,4.27s1.91,4.27,4.27,4.27,4.27-1.91,4.27-4.27-1.91-4.27-4.27-4.27"/>
  <path class="cls-1" d="m134.91,287.32c0,5.43-2.7,9.83-6.03,9.83s-6.03-4.4-6.03-9.83,2.7-9.83,6.03-9.83,6.03,4.4,6.03,9.83Z"/>
  <path class="cls-5" d="m114.32,194.51c-2.34,3.06-4.94,5.9-7.79,8.49l-1.99,24.07c-.29,3.49,2.98,6.45,7.12,6.45h5.31c4.14,0,7.41-2.97,7.13-6.45l-1.99-24.07c-2.84-2.59-5.45-5.43-7.79-8.49"/>
  <path class="cls-3" d="m114.32,0C79.15,0,50.64,28.51,50.64,63.68c0,10.37,2.48,20.17,6.88,28.82,2.03-.19,4.08-.29,6.16-.29,10.67,0,20.72,2.62,29.55,7.26.33-2,2.07-3.52,4.16-3.52,2.33,0,4.22,1.89,4.22,4.22,0,1.37-.66,2.59-1.67,3.36,5.48,3.8,10.34,8.45,14.38,13.74,3.9-5.1,8.54-9.59,13.78-13.32-1.4-.69-2.36-2.13-2.36-3.79,0-2.33,1.89-4.22,4.22-4.22s4.2,1.87,4.22,4.18c9.12-5.05,19.62-7.92,30.78-7.92,2.08,0,4.13.1,6.16.29,4.4-8.65,6.88-18.45,6.88-28.82C178,28.51,149.49,0,114.32,0"/>
  <path class="cls-3" d="m63.68,92.21c-2.08,0-4.13.1-6.16.29C25.24,95.6,0,122.8,0,155.89s22.77,57.54,52.71,62.74c6.11-19.62,21.34-35.22,40.73-41.85.78-.27,1.59-.4,2.39-.4,2,0,3.97.81,5.43,2.27l1.23,1.23c1.54,1.54,3.27,2.77,5.11,3.7-4.05-8.37-6.32-17.77-6.32-27.69,0-8.64,1.72-16.88,4.84-24.4-8.25-1.5-13.84-5.44-17.3-8.86-4.76-4.71-6.59-9.44-6.66-9.64-.45-1.19.15-2.51,1.33-2.96.27-.1.54-.15.82-.15.92,0,1.79.56,2.14,1.48.24.62,5.43,13.5,21.66,15.81,1.77-3.5,3.85-6.81,6.21-9.9-4.04-5.3-8.9-9.94-14.38-13.74-.71.54-1.59.86-2.55.86-2.33,0-4.22-1.89-4.22-4.22,0-.24.02-.47.06-.7-8.83-4.64-18.88-7.26-29.55-7.26"/>
  <path class="cls-5" d="m95.83,176.39c-.8,0-1.61.13-2.39.4-19.39,6.63-34.62,22.23-40.73,41.85,3.56.62,7.23.94,10.97.94,16.5,0,31.54-6.28,42.85-16.57,2.84-2.59,5.45-5.43,7.79-8.49-2.59-3.39-4.85-7.05-6.72-10.92-1.84-.93-3.57-2.16-5.11-3.7l-1.23-1.23c-1.46-1.46-3.43-2.27-5.43-2.27"/>
  <path class="cls-3" d="m164.96,92.21c-11.16,0-21.66,2.87-30.78,7.92,0,.01,0,.03,0,.04,0,2.33-1.89,4.22-4.22,4.22-.67,0-1.3-.16-1.86-.43-5.24,3.72-9.88,8.22-13.78,13.32-2.36,3.09-4.44,6.4-6.21,9.9,1.61.23,3.32.35,5.15.35,20.39,0,27.39-15.59,27.67-16.25.38-.87,1.23-1.38,2.11-1.38.3,0,.61.06.9.19,1.16.5,1.7,1.84,1.21,3.01-.33.78-8.4,19.04-31.89,19.04-2.57,0-4.95-.23-7.14-.63-3.12,7.52-4.84,15.76-4.84,24.4,0,9.93,2.27,19.32,6.32,27.69,2.81,1.42,5.88,2.12,8.96,2.12,5.09,0,10.18-1.94,14.06-5.83,1.47-1.47,3.44-2.27,5.43-2.27.93,0,1.87.18,2.77.55,17.65,7.25,31.38,22.1,37.1,40.47,10.01-1.74,19.22-5.81,27.04-11.64-14.41-10.77-24.2-27.47-25.6-46.22-1.7-22.92,8.74-43.51,25.55-56-9.05-6.73-19.96-11.12-31.81-12.26-2.03-.19-4.08-.29-6.16-.29"/>
  <path class="cls-5" d="m136.05,177.61c-2,0-3.97.81-5.43,2.27-3.88,3.88-8.97,5.83-14.06,5.83-3.07,0-6.15-.71-8.96-2.12,1.87,3.88,4.13,7.54,6.72,10.92,2.34,3.06,4.95,5.9,7.79,8.49,11.31,10.3,26.35,16.57,42.85,16.57,3.74,0,7.4-.32,10.97-.94-5.73-18.38-19.45-33.22-37.1-40.47-.9-.37-1.84-.55-2.77-.55"/>
  <path class="cls-1" d="m97.39,95.95c-2.09,0-3.82,1.52-4.16,3.52-.04.23-.06.46-.06.7,0,2.33,1.89,4.22,4.22,4.22.96,0,1.84-.32,2.55-.86,1.02-.77,1.67-1.99,1.67-3.36,0-2.33-1.89-4.22-4.22-4.22"/>
  <path class="cls-1" d="m129.96,95.95c-2.33,0-4.22,1.89-4.22,4.22,0,1.66.96,3.1,2.36,3.79.56.28,1.19.43,1.86.43,2.33,0,4.22-1.89,4.22-4.22,0-.01,0-.03,0-.04-.02-2.31-1.9-4.18-4.22-4.18"/>
  <path class="cls-1" d="m84.31,109.88c-.27,0-.55.05-.82.15-1.19.45-1.78,1.78-1.33,2.96.08.2,1.91,4.93,6.66,9.64,3.46,3.42,9.05,7.36,17.3,8.86,2.19.4,4.57.63,7.14.63,23.5,0,31.56-18.26,31.89-19.04.5-1.16-.04-2.51-1.21-3.01-.29-.13-.6-.19-.9-.19-.89,0-1.74.52-2.11,1.38-.29.66-7.28,16.25-27.67,16.25-1.83,0-3.54-.13-5.15-.35-16.23-2.32-21.42-15.2-21.66-15.81-.35-.91-1.22-1.48-2.14-1.48"/>
  <path class="cls-7" d="m289.96,134.26c-.4,0-.81-.12-1.16-.35l-21.15-13.76c-.99-.64-1.27-1.97-.63-2.96.41-.63,1.09-.97,1.79-.97.4,0,.8.11,1.16.35l20.01,13.01,20.94-13.04c.35-.21.75-.32,1.13-.32.72,0,1.41.35,1.82,1,.62,1,.32,2.32-.68,2.95l-22.1,13.76c-.35.21-.74.32-1.13.32m-15.38-29.87c-2.33,0-4.22-1.89-4.22-4.22s1.89-4.22,4.22-4.22,4.22,1.89,4.22,4.22-1.89,4.22-4.22,4.22m32.57,0c-2.33,0-4.22-1.89-4.22-4.22s1.89-4.22,4.22-4.22,4.22,1.89,4.22,4.22-1.89,4.22-4.22,4.22M291.51,0C256.34,0,227.83,28.51,227.83,63.68c0,.1,0,.21,0,.31.08,15.41-7.5,29.68-20.58,37.83-1.48.92-2.92,1.9-4.32,2.94,15.6,11.61,25.71,30.19,25.71,51.13s-10.09,39.49-25.67,51.1c4.53,3.39,9.53,6.18,14.86,8.27.91-19.78,17.83-36.58,38.57-36.58h0c15.59,0,29.01,10.04,35.11,22.82h0c6.1-12.79,19.52-22.82,35.11-22.82,20.74,0,37.66,16.81,38.57,36.58,22.28-8.73,38.62-29.85,40.46-54.5,1.87-25.12-10.85-47.44-30.56-59.37-12.88-7.8-20.07-21.95-19.9-37,.04-3.81-.26-7.71-.93-11.66-4.74-27.83-28.02-49.55-56.11-52.4C295.91.11,293.69,0,291.51,0"/>
  <path class="cls-2" d="m202.93,104.76c-16.82,12.49-27.26,33.08-25.55,56,1.4,18.75,11.18,35.46,25.6,46.22,15.58-11.61,25.67-30.17,25.67-51.1s-10.11-39.52-25.71-51.13"/>
  <path class="cls-1" d="m274.58,95.95c-2.33,0-4.22,1.89-4.22,4.22s1.89,4.22,4.22,4.22,4.22-1.89,4.22-4.22-1.89-4.22-4.22-4.22"/>
  <path class="cls-1" d="m307.15,95.95c-2.33,0-4.22,1.89-4.22,4.22s1.89,4.22,4.22,4.22,4.22-1.89,4.22-4.22-1.89-4.22-4.22-4.22"/>
  <path class="cls-1" d="m268.81,116.23c-.7,0-1.38.34-1.79.97-.64.99-.36,2.31.63,2.96l21.15,13.76c.35.23.76.35,1.16.35s.78-.11,1.13-.32l22.1-13.76c1-.63,1.31-1.95.68-2.95-.4-.65-1.1-1-1.82-1-.39,0-.78.1-1.13.32l-20.94,13.04-20.01-13.01c-.36-.23-.76-.35-1.16-.35"/>
  <path class="cls-8" d="m299.68,207.63l1.61,19.44c.29,3.49-2.98,6.45-7.12,6.45h-5.31c-4.14,0-7.41-2.97-7.13-6.45l1.61-19.44c-4.32.82-8.55,2.31-12.55,4.45-8.91,4.78-19.09,7.49-29.92,7.49-2.18,0-4.38-.11-6.6-.33-5.73-.58-11.25-1.94-16.44-3.98-.03.56-.04,1.12-.04,1.68,0,.51.02,1.02.04,1.52h0s-1.52,16.97,13.75,38.05c5.7.45,12,1.51,18.91,3.43,5.96,1.59,11.94,3.38,18.38,5.48.46-2.03,2.27-3.54,4.43-3.54,2.51,0,4.54,2.03,4.54,4.54,0,.67-.15,1.31-.41,1.88,4.1,1.42,8.43,2.97,13.08,4.67,4.85-1.79,9.36-3.41,13.61-4.9-.2-.51-.31-1.07-.31-1.66,0-2.51,2.03-4.54,4.54-4.54,2.07,0,3.81,1.38,4.36,3.27,7.01-2.31,13.44-4.25,19.84-5.96,7.13-1.98,13.63-3.05,19.47-3.47,14.67-20.71,13.19-37.26,13.19-37.26h0c.02-.51.04-1.01.04-1.52,0-.56-.01-1.12-.04-1.68-5.19,2.04-10.71,3.4-16.44,3.98-2.22.22-4.42.33-6.6.33-10.83,0-21.01-2.71-29.92-7.49-4-2.14-8.23-3.63-12.55-4.45"/>
  <path class="cls-4" d="m291.51,206.86c-2.74,0-5.47.26-8.17.77l-1.61,19.44c-.29,3.49,2.98,6.45,7.13,6.45h5.31c4.14,0,7.41-2.97,7.12-6.45l-1.61-19.44c-2.7-.52-5.44-.77-8.17-.77"/>
  <path class="cls-4" d="m326.62,178.68c-15.59,0-29.01,10.04-35.11,22.82h0c-6.1-12.79-19.52-22.82-35.11-22.82h0c-20.74,0-37.66,16.81-38.57,36.58,5.19,2.04,10.71,3.4,16.44,3.98,2.22.22,4.42.33,6.6.33,10.83,0,21.01-2.71,29.92-7.49,4-2.14,8.23-3.63,12.55-4.45,2.7-.52,5.44-.77,8.17-.77s5.47.26,8.17.77c4.32.82,8.55,2.31,12.55,4.45,8.91,4.78,19.09,7.49,29.92,7.49,2.18,0,4.38-.11,6.6-.33,5.73-.58,11.25-1.94,16.44-3.98-.91-19.78-17.83-36.58-38.57-36.58"/>
  <path class="cls-8" d="m224.91,256.24c-20.21,0-30.99,7.58-30.99,7.58h0c-.45.24-.9.48-1.34.73-1.51.87-2.94,1.84-4.29,2.9,17.62,6.4,31.65,20.26,38.29,37.77,1.08,2.86.44,6.08-1.72,8.24l-.57.57c-7.77,7.77-7.77,20.36,0,28.13l.57.57c2.1,2.1,2.85,5.23,1.8,8.01-3.27,8.73-8.39,16.57-14.87,23.04.59,1.41,1.27,2.8,2.06,4.16,7.18,12.44,20.42,19.26,33.72,19.26,6.45,0,12.92-1.61,18.71-4.95.44-.26.87-.52,1.3-.8h0s7.38-3.42,15.44-13.37l.8-9.66c.26-3.14,3.13-5.62,6.73-5.99-2.58-5.31-4.94-11.52-6.81-18.76-4.53-16.84-7.8-34.64-12.42-63.49,7-2.67,13.33-5.06,19.15-7.21-4.65-1.7-8.98-3.25-13.08-4.67-.72,1.57-2.3,2.66-4.13,2.66-2.51,0-4.54-2.03-4.54-4.54,0-.34.04-.68.11-1-6.45-2.1-12.43-3.89-18.38-5.48-6.9-1.92-13.21-2.98-18.91-3.43-2.32-.18-4.55-.27-6.67-.27"/>
  <path class="cls-6" d="m188.29,267.46c-14.48,11.37-19.29,32.77-9.54,49.66,7.23,12.52,21.01,19.11,34.23,19.11,1.03,0,2.06-.04,3.09-.12h0c-7.22,10.51-9.55,25.02-4.27,37.66,6.48-6.47,11.59-14.3,14.87-23.04,1.04-2.78.29-5.91-1.8-8.01l-.57-.57c-7.77-7.77-7.77-20.36,0-28.13l.57-.57c2.16-2.16,2.8-5.38,1.72-8.24-6.64-17.5-20.68-31.36-38.29-37.77"/>
  <path class="cls-8" d="m291.51,288.39c2.79,0,5.05-2.78,5.05-6.21,0-1.27,1.03-2.3,2.3-2.3s2.3,1.03,2.3,2.3c0,5.96-4.33,10.81-9.65,10.81s-9.64-4.85-9.64-10.81c0-1.27,1.03-2.3,2.3-2.3s2.3,1.03,2.3,2.3c0,3.42,2.26,6.21,5.04,6.21m66.6-32.89c-1.95,0-3.98.07-6.1.22-5.84.42-12.34,1.49-19.47,3.47-6.4,1.71-12.83,3.64-19.84,5.96.12.4.18.83.18,1.27,0,2.51-2.03,4.54-4.54,4.54-1.92,0-3.57-1.2-4.23-2.88-4.25,1.48-8.76,3.11-13.61,4.9-5.82,2.15-12.15,4.53-19.15,7.21,4.62,28.85,7.89,46.65,12.42,63.49,1.87,7.24,4.22,13.45,6.81,18.76.31-.03.62-.05.93-.05h0c4.04,0,7.39,2.64,7.67,6.04l.73,8.83c8.09,10.01,15.51,13.46,15.51,13.46h0c.43.27.86.54,1.3.79,5.8,3.35,12.26,4.95,18.71,4.95,13.3,0,26.54-6.82,33.72-19.26,7.8-13.5,5.81-30.14-2.21-41.82h0c1.02.07,2.05.11,3.09.11,13.23,0,27-6.59,34.23-19.11,10.66-18.47,3.92-42.32-13.83-52.57-.44-.26-.89-.49-1.34-.73h0s-10.78-7.59-30.99-7.59"/>
  <path class="cls-8" d="m291.51,362.38h0c-.32,0-.63.02-.93.05-3.61.37-6.47,2.86-6.73,5.99l-.8,9.66-2.06,24.88c-.31,3.75,3.21,6.94,7.67,6.94h5.71c4.46,0,7.98-3.19,7.67-6.94l-2.13-25.71-.73-8.83c-.28-3.4-3.63-6.04-7.67-6.04"/>
  <path class="cls-1" d="m273.29,261.88c-2.16,0-3.97,1.51-4.43,3.54-.07.32-.11.66-.11,1,0,2.51,2.03,4.54,4.54,4.54,1.83,0,3.42-1.09,4.13-2.66.26-.57.41-1.21.41-1.88,0-2.51-2.03-4.54-4.54-4.54"/>
  <path class="cls-1" d="m308.34,261.88c-2.51,0-4.54,2.03-4.54,4.54,0,.58.11,1.14.31,1.66.66,1.69,2.31,2.88,4.23,2.88,2.51,0,4.54-2.03,4.54-4.54,0-.44-.06-.86-.18-1.27-.55-1.89-2.29-3.27-4.36-3.27"/>
  <path class="cls-1" d="m298.86,279.88c-1.27,0-2.3,1.03-2.3,2.3,0,3.42-2.26,6.21-5.05,6.21s-5.04-2.78-5.04-6.21c0-1.27-1.03-2.3-2.3-2.3s-2.3,1.03-2.3,2.3c0,5.96,4.33,10.81,9.64,10.81s9.65-4.85,9.65-10.81c0-1.27-1.03-2.3-2.3-2.3"/>
</svg>