<svg width="37" height="37" viewBox="0 0 37 37" fill="none" xmlns="http://www.w3.org/2000/svg">
<path d="M27.2428 14.428L26.8989 15.0877L27.6396 15.1569C32.6224 15.6226 36.5 19.7238 36.5 24.6989C36.5 29.9867 32.1205 34.2898 26.6939 34.2898C24.1454 34.2898 21.8314 33.3376 20.0921 31.786L19.1545 30.9496L19.2611 32.2015L19.586 36.0192C19.586 36.0193 19.586 36.0194 19.586 36.0195C19.5995 36.1829 19.4099 36.5 18.9294 36.5H18.0706C17.5861 36.5 17.4003 36.1844 17.414 36.0195C17.414 36.0194 17.414 36.0193 17.414 36.0192L17.7389 32.2015L17.8453 30.9524L16.9085 31.7855C15.1628 33.3378 12.8485 34.2898 10.3061 34.2898C4.87954 34.2898 0.5 29.9867 0.5 24.6989C0.5 19.7238 4.37758 15.6226 9.36036 15.1569L10.0997 15.0878L9.7576 14.4287C9.07918 13.1218 8.69385 11.6494 8.69385 10.0909C8.69385 4.80327 13.079 0.5 18.5 0.5C23.9205 0.5 28.3006 4.80291 28.3062 10.0914C28.3061 11.6557 27.9206 13.1276 27.2428 14.428Z" fill="#FF9F00" stroke="#F07300"/>
<path d="M15.7609 16.5398C16.1391 16.5398 16.4457 16.2396 16.4457 15.8693C16.4457 15.499 16.1391 15.1989 15.7609 15.1989C15.3827 15.1989 15.0762 15.499 15.0762 15.8693C15.0762 16.2396 15.3827 16.5398 15.7609 16.5398Z" fill="white"/>
<path d="M21.0301 16.5398C21.4082 16.5398 21.7148 16.2396 21.7148 15.8693C21.7148 15.499 21.4082 15.1989 21.0301 15.1989C20.6519 15.1989 20.3453 15.499 20.3453 15.8693C20.3453 16.2396 20.6519 16.5398 21.0301 16.5398Z" fill="white"/>
<path d="M18.3259 20.9318C16.3413 20.9318 15.082 20.1136 14.3741 19.4318C13.6023 18.6875 13.3063 17.9375 13.2947 17.9034C13.2193 17.7159 13.3179 17.5057 13.5094 17.4318C13.7009 17.3579 13.9156 17.4545 13.9911 17.642C14.0317 17.75 15.0414 20.2045 18.3317 20.2045C21.622 20.2045 22.7652 17.7329 22.8116 17.6307C22.8929 17.4489 23.1134 17.3636 23.2991 17.4432C23.4848 17.5227 23.5718 17.7329 23.4964 17.9204C23.4442 18.0454 22.1385 20.9375 18.3375 20.9375L18.3259 20.9318Z" fill="white"/>
</svg>
