<svg width="45" height="45" viewBox="0 0 45 45" fill="none" xmlns="http://www.w3.org/2000/svg">
<path d="M33.229 17.5975L32.8851 18.2572L33.6258 18.3265C39.7391 18.8978 44.5 23.9302 44.5 30.0392C44.5 36.5321 39.123 41.8119 32.4655 41.8119C29.3386 41.8119 26.4989 40.6435 24.3644 38.7393L23.4268 37.9029L23.5333 39.1548L23.9285 43.7981C23.9523 44.0806 23.6473 44.5 23.0223 44.5H21.9777C21.3477 44.5 21.0478 44.0824 21.0715 43.7984C21.0715 43.7983 21.0715 43.7982 21.0715 43.7981L21.4667 39.1548L21.573 37.9057L20.6362 38.7388C18.4941 40.6437 15.654 41.8119 12.5345 41.8119C5.87703 41.8119 0.5 36.5321 0.5 30.0392C0.5 23.9302 5.26089 18.8978 11.3742 18.3265L12.1135 18.2574L11.7714 17.5983C10.9387 15.994 10.4655 14.1862 10.4655 12.2727C10.4655 5.77992 15.8494 0.5 22.5 0.5C29.1501 0.5 34.5277 5.77957 34.5345 12.2732C34.5344 14.1937 34.0611 16.0011 33.229 17.5975Z" fill="#FF9F00" stroke="#F07300"/>
<path d="M19.1685 19.9418C19.6285 19.9418 20.0013 19.5768 20.0013 19.1264C20.0013 18.6761 19.6285 18.311 19.1685 18.311C18.7086 18.311 18.3357 18.6761 18.3357 19.1264C18.3357 19.5768 18.7086 19.9418 19.1685 19.9418Z" fill="white"/>
<path d="M25.5771 19.9418C26.037 19.9418 26.4099 19.5768 26.4099 19.1264C26.4099 18.6761 26.037 18.311 25.5771 18.311C25.1171 18.311 24.7443 18.6761 24.7443 19.1264C24.7443 19.5768 25.1171 19.9418 25.5771 19.9418Z" fill="white"/>
<path d="M22.2884 25.2835C19.8746 25.2835 18.3431 24.2885 17.4821 23.4592C16.5434 22.554 16.1835 21.6418 16.1693 21.6003C16.0776 21.3723 16.1976 21.1166 16.4305 21.0268C16.6634 20.937 16.9245 21.0544 17.0163 21.2825C17.0657 21.4138 18.2937 24.399 22.2954 24.399C26.2972 24.399 27.6875 21.393 27.744 21.2686C27.8428 21.0475 28.111 20.9439 28.3368 21.0406C28.5627 21.1373 28.6686 21.393 28.5768 21.6211C28.5133 21.7731 26.9253 25.2905 22.3025 25.2905L22.2884 25.2835Z" fill="white"/>
</svg>
